<?xml version="1.0" standalone="no"?>
<!DOCTYPE svg PUBLIC "-//W3C//DTD SVG 20010904//EN"
 "http://www.w3.org/TR/2001/REC-SVG-20010904/DTD/svg10.dtd">
<svg version="1.0" xmlns="http://www.w3.org/2000/svg"
 width="1941.000000pt" height="1401.000000pt" viewBox="0 0 1941.000000 1401.000000"
 preserveAspectRatio="xMidYMid meet">

<g transform="translate(0.000000,1401.000000) scale(0.100000,-0.100000)"
fill="#000000" stroke="none">
<path d="M9765 13820 c-49 -5 -148 -13 -220 -19 -128 -10 -298 -35 -318 -48
-6 -4 -41 -12 -77 -19 -127 -24 -386 -101 -414 -123 -6 -4 -24 -11 -40 -15
-16 -4 -40 -16 -54 -26 -27 -22 -124 -60 -151 -60 -16 0 -93 -32 -216 -91 -22
-10 -83 -53 -135 -94 -52 -42 -126 -100 -165 -129 -157 -120 -524 -465 -552
-520 -16 -31 -39 -62 -103 -139 -20 -23 -48 -60 -62 -82 -15 -22 -45 -65 -68
-95 -22 -30 -51 -78 -64 -105 -13 -28 -31 -57 -40 -64 -9 -7 -16 -19 -16 -26
0 -7 -11 -29 -25 -49 -14 -20 -25 -45 -25 -54 0 -9 -22 -58 -49 -109 -27 -51
-53 -107 -56 -125 -4 -18 -16 -51 -26 -73 -25 -58 -78 -232 -85 -285 -3 -25
-12 -59 -20 -76 -7 -17 -20 -82 -28 -145 -9 -63 -21 -130 -27 -149 -7 -23 -11
-163 -11 -395 0 -291 3 -373 16 -430 8 -38 20 -112 26 -164 6 -52 17 -109 24
-125 7 -17 18 -63 24 -103 7 -39 18 -87 26 -105 23 -56 36 -103 36 -134 0 -16
6 -39 14 -50 8 -11 17 -38 21 -60 4 -21 20 -78 36 -126 16 -47 29 -97 29 -110
0 -12 9 -42 20 -65 10 -24 22 -71 26 -105 3 -35 12 -77 19 -94 7 -16 18 -98
25 -181 14 -157 10 -216 -25 -348 -26 -99 -37 -220 -32 -340 8 -183 23 -251
79 -360 11 -22 29 -56 39 -75 25 -50 98 -135 154 -181 61 -51 199 -117 270
-130 30 -5 71 -17 90 -25 20 -8 78 -21 131 -29 52 -8 98 -16 103 -19 5 -3 60
-13 122 -22 63 -8 123 -21 134 -28 11 -7 37 -18 57 -25 59 -19 135 -86 164
-144 35 -70 41 -175 19 -331 -9 -65 -21 -198 -26 -295 -12 -221 -23 -1065 -14
-1148 7 -69 16 -76 112 -87 70 -9 83 9 83 119 0 44 5 121 11 170 6 50 12 135
14 189 3 81 15 142 31 164 1 2 33 8 70 12 58 7 73 6 107 -11 24 -13 43 -32 51
-52 14 -35 15 -235 1 -540 -8 -187 -6 -197 51 -197 19 0 60 -9 92 -21 31 -11
80 -24 107 -29 28 -5 69 -14 92 -21 82 -25 89 0 98 346 3 94 8 232 12 308 l8
139 39 35 c38 35 39 35 100 28 137 -15 145 -30 152 -265 2 -102 11 -243 20
-315 37 -316 33 -305 164 -372 29 -15 62 -18 195 -18 168 0 165 0 263 54 41
24 88 93 101 151 6 26 11 175 11 344 0 195 4 312 11 337 17 57 48 79 135 99
70 17 81 17 115 4 54 -22 76 -90 88 -270 8 -119 39 -394 57 -501 8 -53 27 -56
155 -22 102 26 118 34 156 71 l43 42 -1 186 c-1 102 -4 248 -8 325 -8 139 -8
140 18 179 20 29 39 43 79 57 68 23 106 16 122 -21 7 -16 9 -37 6 -48 -4 -10
0 -70 9 -133 8 -63 15 -143 15 -179 0 -89 27 -321 38 -332 6 -6 30 -4 63 4 52
13 53 14 67 63 23 81 28 662 8 893 -9 101 -16 223 -16 270 0 104 -15 242 -34
315 -18 69 -30 217 -22 262 8 41 82 120 149 159 53 31 218 72 322 81 44 4 103
12 130 20 28 7 91 19 140 26 50 7 106 21 125 31 19 10 43 18 53 18 10 0 32 7
50 16 37 19 177 124 177 133 0 3 15 22 33 41 40 44 87 115 87 133 0 8 8 25 19
38 10 13 28 47 40 74 40 90 51 161 51 332 0 168 -10 271 -36 358 -13 41 -19
146 -15 240 0 11 1 52 2 90 0 39 9 102 19 140 10 39 22 95 25 125 4 30 12 63
17 73 5 10 14 45 19 79 5 33 21 88 34 121 14 33 25 68 25 78 0 9 9 36 20 60
11 24 20 58 20 75 0 17 9 57 21 90 11 32 29 96 39 141 10 45 24 91 29 102 6
11 17 59 25 108 8 48 22 122 30 163 21 110 36 279 36 420 0 180 -27 518 -45
569 -8 24 -15 62 -15 85 0 22 -9 75 -20 116 -11 41 -27 107 -36 145 -17 78
-68 244 -88 290 -8 17 -19 48 -26 70 -7 22 -21 53 -31 70 -11 16 -19 37 -19
46 0 8 -11 30 -25 49 -14 19 -25 40 -25 47 0 7 -15 38 -32 68 -18 30 -44 75
-58 99 -68 118 -264 392 -306 427 -10 8 -29 30 -43 49 -15 19 -69 76 -121 125
-151 143 -260 248 -283 272 -12 13 -37 28 -57 34 -19 6 -50 23 -68 36 -18 14
-63 38 -99 55 -37 16 -102 54 -144 84 -43 29 -112 71 -154 91 -42 21 -91 46
-108 55 -18 9 -40 17 -49 18 -10 0 -32 6 -50 14 -18 7 -55 21 -83 31 -27 10
-93 33 -145 51 -52 19 -124 41 -160 49 -36 8 -94 22 -130 31 -152 37 -191 45
-300 59 -111 14 -293 30 -450 39 -41 2 -115 0 -165 -4z m-1130 -3791 c133 -45
198 -71 220 -90 11 -9 34 -21 51 -27 63 -21 199 -136 271 -229 55 -73 123
-209 123 -249 0 -12 7 -41 16 -65 26 -72 21 -261 -10 -382 -13 -54 -29 -104
-34 -110 -5 -7 -17 -34 -27 -62 -10 -27 -35 -73 -56 -101 -41 -56 -166 -173
-202 -189 -12 -6 -46 -26 -76 -44 -50 -32 -173 -81 -251 -101 -119 -31 -454
-18 -529 19 -20 10 -58 24 -86 31 -71 19 -154 79 -270 195 -111 111 -138 150
-189 271 -14 34 -26 70 -26 79 0 10 -8 27 -17 37 -15 16 -17 46 -17 231 0 180
3 217 17 242 9 17 17 38 17 48 0 32 69 147 137 228 63 75 144 143 220 184 21
12 49 28 63 37 137 90 458 112 655 47z m2981 20 c32 -6 66 -14 74 -18 8 -5 40
-15 70 -24 30 -9 87 -37 125 -61 39 -24 83 -53 100 -63 37 -23 129 -133 174
-207 18 -31 44 -87 58 -124 13 -37 29 -78 36 -91 20 -40 16 -341 -6 -424 -41
-152 -92 -254 -184 -365 -67 -82 -88 -101 -203 -186 -58 -43 -234 -111 -330
-126 -120 -20 -256 -27 -268 -13 -6 6 -30 14 -54 18 -58 10 -249 73 -268 89
-8 7 -42 29 -76 49 -33 20 -68 45 -79 57 -19 21 -41 28 -29 8 4 -7 3 -8 -5 -4
-6 4 -9 11 -6 16 3 5 -8 16 -25 25 -16 8 -31 20 -31 25 -1 6 -2 14 -3 19 0 5
-17 28 -36 52 -63 78 -90 119 -105 157 -39 102 -92 343 -80 363 4 6 13 55 20
109 14 110 57 234 110 315 47 74 265 255 307 255 5 0 53 21 106 46 53 26 104
47 112 46 8 0 24 3 35 7 66 26 125 45 160 51 62 12 235 11 301 -1z m-1649
-1548 c69 -46 106 -95 211 -283 114 -204 232 -481 232 -546 0 -13 6 -38 14
-55 8 -18 16 -71 19 -119 4 -75 2 -93 -18 -135 -12 -26 -45 -69 -73 -95 -46
-43 -56 -48 -98 -48 -44 0 -50 3 -102 58 -30 31 -60 64 -66 72 -7 8 -30 38
-53 65 -22 28 -47 64 -56 80 -8 17 -25 39 -37 50 l-22 20 -17 -25 c-9 -13 -42
-54 -74 -90 -33 -36 -69 -81 -82 -100 -29 -45 -38 -53 -112 -89 -55 -27 -66
-30 -108 -22 -52 10 -116 63 -133 110 -42 120 -56 211 -33 226 6 3 13 27 16
53 10 69 53 219 80 277 13 28 29 70 35 95 7 25 17 52 24 60 7 8 19 31 26 50 8
19 34 69 57 111 24 42 43 82 43 87 0 18 114 155 161 195 58 48 88 48 166 -2z"/>
<path d="M3525 12126 c-66 -8 -140 -19 -165 -26 -25 -6 -80 -18 -122 -25 -43
-8 -119 -28 -170 -46 -51 -17 -118 -40 -148 -50 -30 -11 -76 -30 -101 -44 -26
-14 -54 -25 -63 -25 -27 0 -196 -83 -275 -136 -41 -27 -81 -53 -89 -59 -180
-118 -326 -255 -524 -491 -55 -65 -118 -153 -118 -163 0 -4 -12 -26 -27 -47
-42 -59 -58 -90 -97 -191 -20 -51 -45 -107 -56 -125 -11 -18 -20 -42 -20 -53
-1 -11 -8 -38 -16 -60 -41 -106 -81 -263 -94 -370 -4 -38 -14 -90 -20 -115 -8
-29 -12 -144 -13 -330 -1 -241 1 -290 15 -315 8 -16 18 -64 21 -105 4 -41 14
-102 23 -135 9 -33 22 -90 30 -127 7 -37 17 -76 23 -86 5 -10 19 -59 31 -108
11 -49 25 -105 31 -124 5 -19 16 -75 24 -125 8 -49 20 -116 26 -147 12 -59 4
-162 -21 -268 -17 -69 -24 -423 -11 -507 17 -107 71 -212 143 -278 65 -59 182
-125 220 -125 14 0 56 -11 94 -24 40 -14 107 -27 159 -31 58 -5 101 -14 120
-25 17 -10 50 -21 73 -25 51 -8 135 -71 165 -125 25 -43 27 -115 8 -260 -23
-174 -15 -1161 9 -1201 13 -20 132 -31 149 -14 18 18 29 145 30 339 1 138 3
152 22 172 18 20 28 22 77 17 32 -3 69 -14 84 -25 32 -22 58 -88 58 -143 -2
-182 1 -271 9 -340 10 -75 13 -82 51 -116 32 -29 50 -38 92 -42 29 -3 63 -8
74 -12 19 -6 24 0 39 39 10 25 15 55 12 67 -3 12 -2 31 3 44 5 12 12 110 15
216 5 134 11 201 20 215 27 43 46 54 90 54 35 0 52 -6 78 -30 l34 -29 6 -193
c9 -245 42 -458 71 -458 7 0 26 -10 42 -22 26 -21 39 -23 139 -22 101 0 115 3
175 31 l65 30 23 75 c20 68 22 94 22 314 0 206 2 243 16 264 28 42 45 50 104
50 92 0 116 -39 131 -210 7 -80 26 -355 29 -412 0 -16 108 -7 167 13 59 20 62
22 77 70 13 40 17 100 19 287 3 247 5 260 50 310 38 42 107 22 146 -42 17 -27
20 -60 26 -276 6 -208 10 -246 24 -257 20 -15 43 -16 74 -2 50 23 50 25 58
489 7 423 2 614 -22 847 -13 117 -7 153 30 196 33 39 104 77 178 96 43 10 96
26 118 35 22 8 56 15 75 16 36 0 190 44 290 82 113 43 246 153 277 228 8 19
21 42 27 50 7 8 26 56 41 105 33 104 45 263 25 355 -30 143 -61 369 -56 410
30 263 46 351 91 500 13 41 28 104 35 140 6 36 15 72 20 81 14 28 40 140 40
177 0 20 8 60 17 87 24 74 24 572 0 661 -9 34 -17 81 -17 105 0 48 -25 166
-39 183 -5 6 -15 47 -24 91 -9 44 -25 99 -37 122 -11 23 -20 47 -20 54 0 23
-89 205 -159 324 -104 177 -351 472 -455 542 -22 15 -72 53 -111 84 -150 121
-419 268 -589 321 -33 10 -64 22 -70 27 -19 15 -180 60 -256 71 -41 7 -95 18
-120 25 -118 36 -549 53 -755 31z m1680 -2804 c22 -12 52 -24 67 -27 64 -13
235 -177 276 -265 9 -19 23 -43 32 -54 12 -15 15 -52 14 -215 0 -182 -2 -199
-22 -236 -12 -22 -22 -49 -22 -59 0 -11 -18 -49 -39 -85 -66 -111 -161 -196
-277 -246 -32 -15 -68 -31 -79 -38 -45 -25 -288 -44 -363 -28 -225 49 -458
236 -528 423 -24 62 -28 92 -31 194 -4 114 -3 124 21 169 15 26 26 55 26 63 0
29 93 154 168 223 44 40 101 82 132 96 249 114 235 111 425 109 143 -2 164 -4
200 -24z m-2399 -8 c18 -8 46 -14 62 -14 56 0 227 -99 320 -185 143 -132 202
-305 179 -520 -12 -114 -72 -235 -161 -325 -196 -200 -462 -276 -726 -207
-125 32 -178 64 -276 163 -106 106 -160 197 -168 282 -3 35 -11 72 -16 83 -18
32 -15 287 3 329 21 48 42 98 60 141 15 37 143 169 163 169 6 0 30 14 53 30
23 17 56 33 74 37 18 3 42 11 53 19 43 26 316 25 380 -2z m1014 -1144 c56 -28
177 -174 227 -272 88 -175 121 -263 142 -381 25 -139 26 -160 5 -220 -18 -54
-91 -127 -126 -127 -13 0 -43 14 -67 30 -51 35 -166 159 -176 189 -10 32 -38
25 -60 -16 -28 -51 -173 -191 -212 -204 -48 -16 -92 3 -138 59 l-40 47 0 101
c0 57 5 111 12 125 6 13 17 49 23 79 6 30 24 82 40 115 87 182 114 236 146
295 20 36 44 74 53 85 10 11 25 32 34 47 13 21 74 64 95 68 1 0 20 -9 42 -20z"/>
<path d="M15810 12110 c-69 -3 -130 -9 -136 -12 -5 -4 -64 -13 -130 -22 -125
-16 -158 -24 -331 -82 -56 -19 -107 -34 -113 -34 -7 0 -23 -9 -37 -20 -14 -11
-41 -22 -62 -26 -20 -4 -54 -17 -77 -30 -22 -13 -46 -24 -52 -24 -6 0 -41 -17
-77 -37 -36 -21 -79 -45 -96 -55 -17 -9 -39 -24 -50 -34 -11 -9 -41 -31 -68
-48 -223 -142 -524 -459 -644 -678 -12 -23 -34 -62 -49 -87 -15 -25 -30 -53
-34 -61 -3 -8 -19 -42 -34 -75 -54 -116 -70 -154 -70 -168 0 -8 -11 -39 -25
-69 -14 -30 -28 -77 -31 -104 -3 -27 -14 -74 -24 -104 -11 -30 -26 -113 -35
-185 -9 -71 -20 -155 -25 -185 -11 -73 -11 -307 0 -395 5 -38 16 -124 24 -190
16 -124 28 -184 40 -204 4 -6 14 -55 22 -109 8 -53 23 -123 34 -155 11 -31 20
-75 20 -97 0 -21 10 -65 22 -97 20 -52 22 -77 23 -243 0 -159 -3 -198 -22
-275 -32 -128 -44 -332 -27 -447 7 -49 18 -96 24 -102 5 -7 16 -30 24 -52 12
-36 37 -79 81 -142 9 -12 33 -34 53 -47 20 -14 54 -37 76 -51 21 -14 64 -32
95 -40 31 -8 72 -21 91 -29 19 -8 71 -21 115 -29 232 -41 367 -98 425 -177 39
-54 46 -142 30 -362 -11 -155 -25 -713 -23 -973 0 -55 5 -116 12 -135 10 -31
17 -36 66 -47 78 -18 95 -7 95 61 0 29 3 81 6 117 2 36 6 125 8 198 3 110 6
136 21 152 30 33 137 21 180 -20 31 -29 36 -67 41 -330 7 -296 5 -293 166
-306 l78 -7 19 44 c19 44 27 136 35 420 3 81 7 101 26 127 31 42 96 52 145 22
48 -30 55 -46 54 -132 0 -41 7 -174 17 -296 20 -254 27 -276 91 -288 21 -4 52
-13 70 -21 44 -18 144 -17 169 2 10 8 35 15 54 15 46 1 61 14 95 79 l28 53 4
262 c4 212 8 267 20 295 19 39 70 65 110 55 74 -19 108 -57 105 -118 -1 -23 2
-57 8 -76 6 -19 15 -123 20 -230 7 -133 14 -197 23 -202 32 -20 184 3 216 34
12 10 21 25 21 32 0 7 7 26 15 42 14 30 23 281 11 314 -3 8 -2 57 3 108 11
120 28 142 111 142 55 0 57 -1 77 -37 19 -34 22 -61 28 -258 8 -286 6 -275 60
-275 25 0 47 6 55 15 19 23 29 142 41 485 20 549 21 578 10 599 -15 28 -17
392 -2 419 26 49 203 118 385 152 60 11 114 24 121 30 7 5 34 13 61 16 77 10
222 86 291 152 106 102 180 273 183 422 2 79 -12 219 -24 238 -4 7 -13 70 -21
142 -15 149 -5 384 20 433 8 15 17 49 20 75 3 26 20 92 37 147 69 226 110 387
140 555 30 165 33 529 5 650 -9 41 -18 104 -20 140 -3 36 -14 99 -27 140 -71
239 -93 309 -111 342 -10 20 -19 42 -19 47 0 21 -63 147 -106 212 -24 37 -44
70 -44 74 0 16 -66 112 -129 190 -180 218 -415 425 -591 521 -19 10 -64 37
-100 61 -36 23 -79 45 -95 49 -17 3 -50 17 -75 30 -103 52 -302 123 -396 140
-21 3 -46 10 -55 15 -21 11 -125 29 -224 39 -44 5 -102 13 -130 18 -69 14
-284 20 -435 12z m1525 -2821 c33 -6 71 -19 85 -28 14 -10 37 -21 52 -25 36
-8 199 -171 222 -222 10 -21 25 -47 34 -57 9 -10 21 -60 30 -125 18 -137 18
-154 -2 -290 -15 -109 -44 -190 -82 -233 -8 -8 -14 -19 -14 -23 0 -20 -113
-122 -180 -163 -122 -73 -178 -90 -326 -98 -182 -9 -253 3 -372 61 -140 69
-235 164 -327 329 -34 60 -50 208 -35 333 10 87 16 104 55 167 75 121 177 213
313 283 193 99 349 125 547 91z m-2300 -23 c137 -54 191 -80 240 -114 79 -55
136 -103 142 -121 3 -9 16 -29 28 -46 55 -77 67 -107 80 -202 19 -131 18 -185
-4 -268 -27 -102 -81 -188 -174 -277 -44 -43 -84 -78 -88 -78 -4 0 -31 -16
-61 -35 -29 -20 -88 -49 -130 -65 -73 -28 -85 -30 -226 -30 -133 0 -158 3
-228 26 -44 14 -86 31 -94 38 -8 6 -28 18 -45 26 -16 8 -68 54 -116 101 -70
69 -93 101 -126 170 -35 71 -42 98 -49 179 -15 179 -4 329 30 382 11 18 25 45
31 60 15 42 119 153 179 193 29 19 81 48 117 65 l64 30 180 -3 c169 -3 184 -5
250 -31z m976 -1170 c40 -30 119 -116 119 -129 0 -3 16 -29 36 -58 32 -47 76
-133 145 -285 11 -22 19 -54 19 -70 0 -16 7 -42 16 -59 9 -16 20 -70 25 -118
10 -104 -1 -140 -59 -199 -40 -42 -73 -48 -121 -23 -34 17 -127 118 -179 192
-21 29 -43 53 -50 53 -6 0 -33 -33 -58 -72 -25 -40 -63 -90 -83 -111 -33 -36
-126 -87 -157 -87 -21 0 -104 84 -104 106 0 10 -7 37 -15 60 -12 36 -12 50 1
110 8 38 14 82 14 98 0 38 16 74 196 427 33 65 160 199 189 199 12 0 42 -15
66 -34z"/>
<path d="M16060 4521 c-60 -10 -165 -47 -199 -70 -80 -54 -110 -70 -149 -76
-58 -9 -72 -37 -48 -98 22 -59 43 -68 151 -65 123 4 148 -9 203 -106 37 -64
42 -81 42 -135 0 -42 -6 -74 -20 -101 -11 -22 -20 -47 -20 -57 0 -10 -18 -43
-39 -73 -22 -30 -60 -85 -86 -123 -37 -53 -64 -79 -130 -123 -76 -49 -115 -85
-115 -105 0 -4 22 -15 49 -24 37 -12 57 -13 87 -6 22 5 56 14 77 19 21 6 43
14 50 20 7 5 30 15 52 22 22 7 45 16 50 20 6 5 30 16 55 26 79 30 239 144 325
230 81 81 83 84 90 143 9 79 -6 125 -46 141 -41 18 -67 54 -75 106 -8 54 2 79
56 143 34 40 40 54 40 93 0 70 -40 149 -91 177 -35 20 -58 24 -153 27 -61 1
-131 -1 -156 -5z"/>
<path d="M15774 3972 c-6 -4 -14 -40 -16 -80 l-5 -74 30 6 c16 3 35 6 42 6 6
0 26 18 44 41 43 52 37 84 -17 98 -44 13 -63 13 -78 3z"/>
<path d="M3218 3760 c-268 -3 -390 -8 -398 -16 -14 -14 25 -139 52 -166 9 -9
34 -52 55 -95 l38 -78 0 -1205 0 -1205 -29 -80 c-15 -44 -37 -94 -47 -111 -13
-21 -19 -50 -19 -88 0 -51 3 -57 24 -66 39 -14 1754 -15 1791 0 58 23 137 29
382 30 137 1 263 4 281 7 48 8 43 43 -14 110 -26 30 -52 74 -60 100 -22 72
-28 221 -11 267 18 47 78 111 115 121 15 4 142 9 282 12 l255 5 36 -35 c52
-50 94 -181 93 -292 0 -77 -1 -82 -38 -135 -21 -30 -47 -65 -58 -77 -11 -11
-18 -29 -16 -40 3 -15 16 -19 88 -24 115 -8 1183 -11 1203 -3 19 7 23 39 7 49
-5 3 -10 13 -10 22 0 8 -12 31 -27 49 -16 19 -40 49 -54 66 -31 38 -89 145
-89 163 0 7 -6 18 -14 24 -7 6 -19 33 -26 59 -25 91 -71 227 -81 236 -5 6 -9
21 -9 34 0 31 -26 137 -45 182 -9 19 -21 69 -29 110 -13 70 -26 129 -63 275
-8 33 -20 94 -28 135 -7 41 -20 95 -29 120 -8 25 -22 81 -30 125 -9 44 -30
130 -47 190 -17 61 -38 144 -48 185 -10 42 -23 85 -28 95 -6 11 -14 45 -18 75
-4 30 -16 81 -26 113 -10 32 -24 89 -30 125 -6 37 -16 75 -21 85 -5 10 -15 73
-23 140 -8 67 -21 147 -29 177 -21 72 -20 112 3 142 19 24 24 40 22 69 -2 27
-125 31 -738 23 l-573 -7 -6 -24 c-6 -23 6 -53 83 -208 8 -16 21 -88 29 -160
13 -116 13 -147 -1 -290 -9 -88 -21 -169 -27 -180 -10 -18 -18 -63 -37 -220
-4 -33 -12 -71 -18 -85 -6 -14 -17 -65 -24 -115 -7 -49 -17 -99 -22 -109 -10
-20 -23 -107 -34 -221 -3 -33 -9 -64 -13 -70 -5 -5 -15 -50 -25 -100 -9 -49
-22 -110 -29 -135 -8 -25 -19 -88 -26 -140 -7 -52 -21 -120 -31 -150 -9 -30
-21 -100 -25 -155 -3 -55 -12 -111 -19 -125 -7 -14 -20 -56 -29 -95 -8 -38
-25 -88 -36 -110 -11 -21 -20 -47 -20 -56 0 -17 -43 -69 -58 -69 -5 0 -14 -11
-20 -25 -6 -14 -15 -25 -19 -25 -18 0 -34 82 -37 185 -5 184 -23 357 -38 366
-22 15 -39 10 -61 -17 -73 -88 -112 -124 -160 -145 -129 -56 -308 -94 -388
-82 -20 3 -49 15 -64 27 l-28 23 -3 959 c-3 791 0 994 12 1159 11 135 20 206
30 220 64 91 85 130 80 150 -5 21 -13 22 -127 28 -67 4 -172 6 -233 5 -61 -2
-285 -5 -498 -8z m2397 -1202 c5 -19 15 -41 21 -49 21 -25 54 -98 54 -117 0
-11 10 -53 23 -93 13 -41 29 -99 37 -129 7 -30 18 -66 25 -80 7 -14 18 -59 25
-100 6 -41 18 -97 26 -124 18 -63 17 -136 -1 -160 -16 -21 -124 -41 -287 -52
-95 -7 -96 -7 -123 20 -28 28 -28 28 -22 134 3 60 12 123 20 142 8 19 20 76
27 125 6 50 20 118 31 153 10 34 21 93 25 130 4 49 17 90 47 154 23 48 46 86
52 85 5 -2 14 -19 20 -39z"/>
<path d="M8390 3761 c-473 -7 -490 -10 -442 -82 9 -15 30 -46 47 -70 49 -72
78 -132 86 -174 5 -22 15 -69 23 -105 13 -56 16 -211 15 -1125 0 -596 -4
-1078 -9 -1100 -32 -142 -74 -238 -137 -313 -49 -57 -50 -75 -6 -87 15 -5 235
-12 488 -16 253 -5 519 -11 592 -14 144 -7 173 -1 173 39 0 26 -34 106 -63
146 -26 37 -55 143 -66 245 -14 122 -16 553 -3 585 6 14 13 37 16 53 12 52 38
32 83 -61 23 -48 47 -105 54 -127 11 -40 34 -105 83 -240 14 -39 26 -74 26
-79 0 -4 6 -22 14 -39 21 -48 73 -217 81 -262 8 -47 37 -147 58 -197 12 -29
22 -37 53 -43 38 -7 565 -21 1194 -32 296 -5 306 -4 323 15 18 19 17 21 -17
55 -20 20 -52 66 -72 104 -35 67 -36 69 -32 173 2 82 7 114 24 145 32 62 60
70 280 85 308 21 349 11 417 -104 l41 -71 1 -116 c0 -97 -3 -120 -17 -136 -10
-11 -18 -22 -18 -25 0 -3 -16 -29 -35 -58 -36 -53 -45 -90 -22 -90 353 -6
1153 -22 1207 -25 389 -17 675 -24 945 -25 176 0 432 -5 570 -10 153 -5 256
-5 267 1 29 16 33 73 9 115 -18 31 -20 41 -11 75 6 21 13 130 15 241 4 168 2
214 -11 265 -16 58 -19 63 -45 63 -21 0 -37 -12 -67 -49 -98 -125 -175 -155
-426 -167 l-131 -7 -32 34 c-18 18 -33 43 -33 55 0 13 -5 35 -10 49 -14 36
-14 2014 0 2075 6 25 15 79 21 120 6 47 18 88 33 110 48 74 56 90 56 118 0 50
-62 55 -595 48 -568 -8 -603 -9 -622 -29 -13 -13 -12 -19 7 -58 12 -24 31 -53
41 -64 38 -42 67 -114 89 -225 27 -132 27 -135 10 -1595 -8 -683 -12 -816 -24
-847 -14 -32 -32 -48 -56 -48 -15 0 -88 105 -100 145 -7 22 -18 50 -26 61 -12
21 -34 95 -70 244 -8 36 -24 88 -34 115 -10 28 -23 78 -29 112 -7 34 -19 75
-27 92 -9 17 -19 58 -24 90 -4 32 -17 90 -29 127 -20 69 -27 97 -61 252 -10
46 -25 107 -34 135 -22 76 -76 322 -76 346 0 11 -8 42 -19 68 -10 26 -21 73
-25 103 -4 30 -16 74 -26 96 -10 23 -21 70 -25 105 -4 35 -15 89 -25 119 -10
30 -22 89 -25 130 -4 41 -15 109 -24 150 -20 87 -19 196 3 255 24 64 21 73
-31 88 -39 12 -159 14 -643 13 -327 0 -603 -5 -612 -10 -22 -10 -23 -39 -3
-56 8 -7 15 -17 15 -22 0 -6 17 -47 38 -91 68 -144 82 -205 82 -361 0 -75 -4
-145 -10 -155 -5 -10 -17 -81 -25 -157 -9 -77 -23 -153 -31 -170 -8 -18 -20
-74 -28 -125 -8 -52 -19 -112 -25 -134 -6 -22 -15 -74 -22 -115 -6 -41 -17
-93 -24 -115 -7 -22 -19 -74 -25 -115 -7 -41 -20 -100 -30 -130 -10 -30 -21
-86 -25 -125 -4 -38 -13 -81 -20 -95 -7 -14 -18 -54 -25 -90 -6 -36 -18 -77
-26 -92 -8 -15 -19 -62 -25 -105 -6 -43 -19 -98 -29 -123 -9 -25 -20 -65 -24
-90 -12 -80 -66 -227 -93 -254 -47 -47 -87 -30 -116 49 -20 53 -91 215 -128
290 -16 33 -29 66 -29 74 0 8 -22 59 -49 115 -26 56 -51 112 -56 126 -8 27
-48 119 -71 162 -8 15 -22 51 -30 80 -9 29 -31 85 -50 125 -18 39 -40 89 -48
110 -8 21 -20 53 -27 70 -13 32 -12 33 31 70 24 21 55 45 69 54 47 29 138 118
180 176 79 111 94 139 125 233 28 88 30 104 28 224 -2 138 -30 272 -70 339
-11 18 -22 45 -26 60 -9 36 -79 140 -115 169 -98 79 -153 118 -167 118 -6 0
-22 9 -36 19 -13 11 -55 26 -94 34 -38 8 -86 24 -107 36 -22 12 -55 21 -81 21
-24 0 -59 6 -77 14 -42 18 -576 25 -1179 17z m814 -519 c52 -28 92 -66 99 -93
4 -13 22 -48 42 -77 72 -110 76 -358 8 -482 -54 -97 -105 -158 -167 -197 l-40
-26 -27 31 -28 31 -2 278 c-1 153 -2 296 -3 318 -2 130 4 183 25 209 24 31 47
33 93 8z m2125 -779 c6 -21 11 -41 11 -45 0 -4 16 -28 35 -54 20 -25 35 -57
35 -72 0 -15 7 -52 16 -82 9 -30 22 -89 30 -130 8 -41 21 -95 28 -120 8 -25
18 -65 21 -90 4 -25 13 -73 22 -107 31 -129 2 -149 -226 -160 -133 -6 -140 -5
-176 17 -29 18 -35 27 -31 44 3 11 9 53 12 91 3 39 17 98 30 132 13 34 24 79
24 100 0 21 9 58 20 82 11 24 20 50 20 59 0 9 4 29 9 46 6 17 17 58 26 91 9
33 25 78 35 100 11 22 22 61 25 88 7 57 20 60 34 10z"/>
<path d="M14699 3237 c-11 -25 -12 -23 69 -178 26 -49 36 -84 43 -149 11 -101
1 -1691 -11 -1862 -6 -82 -15 -128 -28 -155 -11 -21 -29 -69 -41 -108 -12 -38
-30 -81 -41 -94 -22 -26 -26 -73 -7 -89 10 -8 286 -20 882 -37 88 -3 361 -8
607 -11 l446 -6 6 43 c7 50 14 720 8 738 -2 6 -8 11 -14 11 -11 0 -85 -54
-156 -115 -41 -35 -70 -51 -157 -85 -96 -39 -212 -56 -360 -55 -97 0 -114 3
-141 22 -66 47 -87 166 -82 476 3 202 3 206 27 231 24 25 28 26 155 26 89 0
144 -5 171 -15 22 -8 55 -14 74 -15 19 0 63 -13 98 -30 34 -16 66 -30 70 -30
3 0 15 -7 25 -17 10 -9 20 -14 23 -11 5 4 21 463 18 532 -1 21 -6 43 -12 49
-7 7 -89 6 -282 -7 l-272 -17 -27 26 c-31 30 -39 79 -47 265 -2 58 -6 132 -9
166 -7 72 12 120 52 130 14 4 103 4 197 1 160 -4 179 -7 266 -36 126 -43 145
-54 218 -124 35 -33 63 -56 64 -51 0 5 0 72 0 149 -1 140 12 352 24 391 4 13
0 27 -11 38 -19 20 -38 19 -499 -3 -183 -9 -271 -9 -370 -1 -164 15 -499 28
-763 29 l-202 1 -11 -23z"/>
</g>
</svg>
